PathFileType	4	(X/Y/Z)	Patient4_TMGait_0pt5_01_left_03.trc.trc
DataRate	CameraRate	NumFrames	NumMarkers	Units	OrigDataRate	OrigDataStartFrame	OrigNumFrames
71.794871794872	71.794871794872	4	33	mm	71.794871794872	71	       141
Frame#	Time	L.ASIS			Sacral			L.Shoulder			Chest			R.Shoulder			Neck			R.ASIS			R.Thigh.Superior			R.Thigh.Lateral			R.Thigh.Inferior			R.Patella			L.Thigh.Superior			L.Thigh.Lateral			L.Thigh.Inferior			L.Patella			L.Shank.Superior			L.Shank.Lateral			L.Shank.Inferior			R.Shank.Superior			R.Shank.Lateral			R.Shank.Inferior			R.Heel			R.Midfoot.Superior			R.Midfoot.Lateral			R.Toe			L.Heel			L.Midfoot.Lateral			L.Midfoot.Superior			L.Toe			L.Elbow			L.Wrist			R.Elbow			R.Wrist			
		X1	Y1	Z1	X2	Y2	Z2	X3	Y3	Z3	X4	Y4	Z4	X5	Y5	Z5	X6	Y6	Z6	X7	Y7	Z7	X8	Y8	Z8	X9	Y9	Z9	X10	Y10	Z10	X11	Y11	Z11	X12	Y12	Z12	X13	Y13	Z13	X14	Y14	Z14	X15	Y15	Z15	X16	Y16	Z16	X17	Y17	Z17	X18	Y18	Z18	X19	Y19	Z19	X20	Y20	Z20	X21	Y21	Z21	X22	Y22	Z22	X23	Y23	Z23	X24	Y24	Z24	X25	Y25	Z25	X26	Y26	Z26	X27	Y27	Z27	X28	Y28	Z28	X29	Y29	Z29	X30	Y30	Z30	X31	Y31	Z31	X32	Y32	Z32	X33	Y33	Z33	

71	4.795000000000	741.556361753667	961.380655933709	296.602043151573	511.878015410486	998.034879093669	428.885397045699	695.651332976369	1427.631875359357	260.617254058282	776.031766816896	1364.384401190820	436.702852974710	667.785456451378	1442.146055270522	597.002530783002	675.179903348913	1492.889368635481	408.430528043593	726.222018687167	938.856720979989	571.723194043280	801.461053738872	765.605764350472	548.797159376885	756.448428011798	645.062690207245	620.888821666652	847.614405274869	605.586406705928	544.152169833618	881.705078613813	522.527573935062	562.272867298547	749.103304327487	735.155546379534	327.095786257725	639.605074826043	637.550099420479	259.651991785252	695.253047778282	548.123269248568	331.492081218048	681.141200160140	482.468684976294	342.581576330124	654.240602076356	415.654146617779	334.519662373920	566.053466698508	300.718797358611	281.991224813246	609.914755568384	193.003546058042	364.611324749064	867.581803709330	435.567041715745	571.820855060541	816.696132158622	323.148869048774	637.861781067538	885.948975332967	236.409416080100	587.365112507583	792.989768572040	48.474640410506	563.000664858836	955.371198653129	125.772187817201	602.935355974740	878.270139171003	47.389068699307	636.024048589685	1079.979793871410	89.864154129556	626.769503389256	477.432613945562	37.803369633810	408.677875315083	555.127588588659	34.184819676591	331.312794572418	637.243992059540	95.208920102283	360.183322014120	766.638261404998	44.218486490000	340.298961719571	736.690841751235	1085.460800946539	119.739883502190	972.156582386288	977.514385728025	136.187683901360	516.058633094649	1134.899359377275	706.042868223042	479.421394996417	879.027680904141	736.232587606868	
72	4.808928571429	742.055185334563	960.604144341787	298.166012807785	512.240894759795	996.638941481136	430.052609822410	695.981633641243	1425.925975657833	261.983322831845	775.758718638911	1363.121250342616	438.529568821324	666.895316756698	1441.275908601763	598.285101030358	674.924107552990	1491.488830083516	409.564934139997	726.245360826391	936.910394652537	573.484282895392	800.950598034736	763.249549906040	550.427486287792	754.793446902850	642.362437284675	621.435917429675	846.461600825427	603.029232979005	545.300194415304	879.926060225952	520.471640455851	562.529426315054	747.791623406553	733.894746583869	327.612197733312	637.102679753298	637.351783088091	260.145952355280	691.965889754301	547.290049350821	331.695896752634	677.224858466377	481.603869146229	342.704460547910	649.773486649620	415.167246404390	334.551107381743	560.526796301053	300.966071675396	282.066427845124	603.733221248142	192.756840862702	364.441010971844	866.560167984413	433.509608372247	571.809726583404	816.450727001605	320.571541208109	637.303505887593	886.528695176916	234.585253000323	586.748998711796	794.691013612395	47.147285118307	561.600308137733	957.091445584422	123.536891548970	601.897869926327	879.701221618086	45.750624397728	634.824648534827	1081.444244211461	87.158731821631	626.004694328553	470.444944051737	37.882888143699	408.614040968067	548.125103895630	34.159553104599	331.274857790017	630.327929434605	95.094858442447	360.106301374751	759.666435555540	43.999599590600	340.283717500735	739.272166399974	1083.862979254450	121.890079555460	976.542886598466	980.519371216728	139.172811990261	512.723236347824	1135.378490660702	706.466784391377	475.613082041377	879.383549417504	736.299639811993	
73	4.822857142857	742.613652977026	959.805350531225	299.782168186766	512.760618080441	995.234437046613	431.550627674624	696.209980428959	1424.237941299316	263.536643868028	775.556210146909	1361.908316458620	440.468617493139	666.088876507793	1440.314763036123	599.733102820776	674.659916255869	1490.086144961143	410.917658470374	726.618659768509	934.951415758036	575.254892191536	801.004314889464	760.948877614435	551.931152472003	753.654878199656	639.744048640130	621.870946646494	845.703949565529	600.551770766027	546.248626161260	878.445161930256	518.248391511969	562.664315182729	746.655047140244	732.602756381113	328.180987707634	634.772851391079	637.090508860854	260.830218934994	688.973653862723	546.408596926880	332.016830580749	673.597445619767	480.663949949354	343.001965590029	645.590220295554	414.585352804270	334.739170911199	555.177965223928	301.219232019075	282.268941378993	597.649346376787	192.464056419126	364.337822922908	865.314283935360	431.107013054915	571.689924070261	815.224810541379	317.985556892451	636.614566588918	885.473991973550	232.314600845791	585.981736070643	793.438312847900	46.142534348529	560.097808902046	956.299322002401	120.600242095119	600.664668908976	878.113367061637	44.076245955158	633.599096854075	1080.171931721324	83.001138791357	625.237145711223	463.465596693905	37.969066182962	408.531747500406	541.121710739612	34.150102173057	331.228219614502	623.399194395870	94.986020299290	360.039858895778	752.672570941050	43.781329873121	340.266785528888	741.608166931140	1082.183123608360	124.359727050502	980.303231714154	982.675013039878	142.371281467754	510.376997955097	1135.287388444523	707.118049169000	473.532570436291	879.027217309897	736.399306606687	
74	4.836785714286	743.216616638822	958.985818128638	301.446789138630	513.420784594562	993.870142878361	433.364286920159	696.348226865048	1422.626353172270	265.291687724302	775.447798555627	1360.777912837164	442.518684567775	665.404416882942	1439.280476587466	601.359214777282	674.415880250109	1488.723384602045	412.510543423232	727.332699324189	933.039333913109	577.011501019926	801.578727272529	758.734066703068	553.275308350480	752.998736170502	637.285006606706	622.220227788144	845.267589713406	598.208899792125	546.968424001501	877.215964486126	515.933398841558	562.655600471767	745.689578046878	731.287329816272	328.839023481469	632.626086997642	636.767481948944	261.725500293677	686.274948464050	545.482076573067	332.493613315921	670.270800195993	479.648022257576	343.506668632653	641.689544953567	413.904066340166	335.121019900823	550.016925103967	301.481641641191	282.620381832028	591.659873567198	192.131033538641	364.325680396754	863.884068450243	428.456651273270	571.483572733649	813.204882155674	315.424897226981	635.876420462544	883.049124904198	229.677289220961	585.110736865595	789.701186352528	45.330908369617	558.615380880127	953.356977491810	117.156113300975	599.291034309013	874.019101283169	42.391761602203	632.435790767709	1076.624329273958	77.819080693839	624.468973306367	456.494229461457	38.070750616651	408.429813169064	534.119804433875	34.167404475619	331.176955229280	616.454323974550	94.895917312023	359.993185420838	745.654447466032	43.561118316108	340.250176960403	743.656252457621	1080.476499942285	127.127044191462	983.417611487599	983.974395447739	145.761112920286	509.021296597720	1134.647961242938	708.039194962505	473.155338301094	877.994602466682	736.589722382029	
